<?xml version="1.0" standalone="no"?>
<svg viewBox="0 0 200 200" xmlns="http://www.w3.org/2000/svg">
  <path fill="#81B673" d="M44.6,-71.8C55.2,-62.6,59.5,-45.9,65,-30.6C70.5,-15.4,77.2,-1.7,78.8,13.8C80.4,29.2,76.9,46.4,67,58.2C57.1,70,40.7,76.5,25.8,74.9C10.9,73.4,-2.5,63.8,-14.7,57C-26.8,50.2,-37.7,46.1,-49.3,39.2C-61,32.2,-73.4,22.2,-75.6,10.5C-77.9,-1.2,-70,-14.8,-63.7,-29.3C-57.4,-43.7,-52.6,-59.1,-42.2,-68.4C-31.9,-77.8,-15.9,-81.2,0.5,-82C17,-82.8,34,-81.1,44.6,-71.8Z" transform="translate(100 100)" />
</svg>
